<svg width="21" height="21" viewBox="0 0 21 21" fill="none" xmlns="http://www.w3.org/2000/svg">
<g clip-path="url(#clip0_81_3509)">
<path d="M18.6611 1.76472C18.5138 1.61755 18.2751 1.61743 18.1278 1.76472L14.2178 5.67457C14.165 5.7273 14.1291 5.79449 14.1146 5.86765C14.1 5.9408 14.1075 6.01663 14.136 6.08555C14.1645 6.15446 14.2129 6.21336 14.2749 6.25479C14.3369 6.29622 14.4099 6.31833 14.4844 6.31831C14.534 6.31837 14.583 6.30865 14.6288 6.28971C14.6746 6.27076 14.7161 6.24296 14.7511 6.2079L18.6611 2.29804C18.8084 2.15071 18.8084 1.91196 18.6611 1.76472ZM19.7244 2.81123C19.6537 2.74054 19.5577 2.70083 19.4577 2.70083C19.3577 2.70083 19.2618 2.74054 19.1911 2.81123L15.2811 6.72117C15.2104 6.7919 15.1707 6.88781 15.1707 6.98782C15.1707 7.08783 15.2104 7.18375 15.2811 7.25449C15.3161 7.28955 15.3577 7.31735 15.4034 7.3363C15.4492 7.35525 15.4982 7.36497 15.5478 7.36491C15.5973 7.36497 15.6464 7.35525 15.6921 7.3363C15.7379 7.31735 15.7795 7.28955 15.8145 7.25449L19.7244 3.34451C19.7594 3.3095 19.7872 3.26793 19.8061 3.22218C19.8251 3.17643 19.8349 3.12739 19.8349 3.07787C19.8349 3.02835 19.8251 2.97931 19.8061 2.93356C19.7872 2.88781 19.7594 2.84624 19.7244 2.81123Z" fill="black"/>
<path d="M16.0358 9.41347L20.8895 4.55976C20.9246 4.52474 20.9523 4.48317 20.9713 4.43742C20.9902 4.39166 21 4.34262 21 4.2931C21 4.24357 20.9902 4.19453 20.9713 4.14878C20.9523 4.10302 20.9246 4.06145 20.8895 4.02643C20.7422 3.87927 20.5035 3.87915 20.3562 4.02643L15.5026 8.88014C14.9046 9.47807 13.9903 9.63495 13.2274 9.27065C13.1536 9.23538 13.0703 9.22508 12.9901 9.2413C12.9099 9.25753 12.8372 9.2994 12.7829 9.3606L11.1337 11.2187C11.133 11.2194 11.1323 11.22 11.1316 11.2208C11.131 11.2215 11.1305 11.2223 11.1298 11.223L4.00176 19.2538L3.99639 19.26C3.97467 19.2857 3.95192 19.3105 3.92822 19.3344C3.45757 19.805 2.69181 19.8049 2.22136 19.3344C1.99339 19.1064 1.86784 18.8033 1.86784 18.4809C1.86784 18.1585 1.99339 17.8554 2.22177 17.6271C2.24546 17.6034 2.27014 17.5808 2.29572 17.5592C2.29785 17.5574 2.2999 17.5556 2.30195 17.5538L6.75822 13.5985C6.83301 13.5321 6.87837 13.4388 6.88432 13.3389C6.89026 13.2391 6.85631 13.141 6.78992 13.0662C6.65166 12.9104 6.41328 12.8961 6.25758 13.0345L1.80427 16.9872C1.76412 17.0213 1.72535 17.057 1.68807 17.0942C1.31766 17.4646 1.11365 17.9571 1.11365 18.4809C1.11365 19.0047 1.31762 19.4972 1.68803 19.8677C2.07042 20.25 2.57257 20.4411 3.07485 20.4411C3.57692 20.4411 4.0792 20.25 4.4613 19.8679C4.49861 19.8305 4.53441 19.7916 4.5686 19.7514L10.0004 13.6316L15.4322 19.7515C15.4663 19.7917 15.502 19.8305 15.5393 19.8677C15.9216 20.25 16.4238 20.4412 16.9259 20.4412C17.4282 20.4412 17.9304 20.25 18.3128 19.8677C19.0773 19.103 19.0773 17.859 18.313 17.0945C18.2756 17.0572 18.2368 17.0214 18.1966 16.9873L11.9462 11.4395L13.169 10.0617C14.1599 10.4127 15.281 10.1682 16.0358 9.41347ZM17.6988 17.5539L17.705 17.5593C17.7307 17.581 17.7555 17.6037 17.7794 17.6274C18.25 18.098 18.25 18.8638 17.7794 19.3343C17.3088 19.8049 16.5431 19.8049 16.0723 19.3341C16.0467 19.3084 16.0222 19.2815 15.9989 19.2537L10.5045 13.0635L11.4454 12.0035L17.6988 17.5539Z" fill="black"/>
<path d="M17.5292 0.667037C17.4585 0.596348 17.3626 0.556641 17.2626 0.556641C17.1625 0.556641 17.0666 0.596348 16.9959 0.667037L12.1423 5.52078C11.3873 6.27564 11.1429 7.39663 11.4939 8.38765L10.0003 9.71336L8.56488 8.43925C9.30722 6.9786 9.03623 5.20513 7.85851 4.02736C6.68882 2.85768 5.334 2.03454 4.0436 1.70965C2.69653 1.37058 1.54161 1.59694 0.791269 2.34724C0.0409293 3.09754 -0.185477 4.25262 0.153681 5.59962C0.478607 6.88993 1.30171 8.24475 2.47147 9.4144C3.6492 10.5922 5.42263 10.8632 6.88336 10.1208L8.30492 11.7224C8.34028 11.7623 8.38373 11.7943 8.43238 11.8161C8.48103 11.838 8.53378 11.8492 8.58711 11.8491C8.67935 11.8492 8.76841 11.8154 8.8373 11.7541L12.1951 8.77369C12.2563 8.71937 12.2981 8.64663 12.3144 8.56644C12.3306 8.48625 12.3203 8.40296 12.285 8.32912C11.9207 7.56619 12.0776 6.65195 12.6755 6.05407L17.5292 1.20036C17.5642 1.16535 17.592 1.12377 17.611 1.07802C17.6299 1.03226 17.6397 0.983225 17.6397 0.9337C17.6397 0.884175 17.6299 0.835136 17.611 0.789381C17.592 0.743627 17.5642 0.702054 17.5292 0.667037ZM8.61865 10.9398L7.24594 9.39323C7.18704 9.32686 7.10662 9.28339 7.01883 9.27047C6.93103 9.25755 6.8415 9.27601 6.76597 9.3226C5.55692 10.0681 4.01022 9.88673 3.00468 8.88115C1.9299 7.80642 1.17714 6.57567 0.88499 5.41546C0.613261 4.33605 0.769367 3.43576 1.3246 2.88057C1.87974 2.3253 2.78003 2.16927 3.8594 2.44104C5.01961 2.73316 6.25045 3.48588 7.32514 4.56065C8.33068 5.56615 8.51213 7.11285 7.76655 8.3219C7.71999 8.39744 7.70154 8.48696 7.71446 8.57475C7.72738 8.66253 7.77083 8.74295 7.83718 8.80187L9.43219 10.2176L8.61865 10.9398Z" fill="black"/>
</g>
<defs>
<clipPath id="clip0_81_3509">
<rect width="21" height="21" fill="white"/>
</clipPath>
</defs>
</svg>
