<svg width="42" height="60" viewBox="0 0 42 60" fill="none" xmlns="http://www.w3.org/2000/svg">
<path d="M21.8828 32.0684H6.74805L6.66602 25.7109H20.4062C22.6758 25.7109 24.6582 25.3281 26.3535 24.5625C28.0488 23.7969 29.3613 22.7031 30.291 21.2812C31.248 19.832 31.7266 18.1094 31.7266 16.1133C31.7266 13.9258 31.3027 12.1484 30.4551 10.7812C29.6348 9.38672 28.3633 8.375 26.6406 7.74609C24.9453 7.08984 22.7852 6.76172 20.1602 6.76172H8.51172V60H0.595703V0.28125H20.1602C23.2227 0.28125 25.957 0.595703 28.3633 1.22461C30.7695 1.82617 32.8066 2.7832 34.4746 4.0957C36.1699 5.38086 37.4551 7.02148 38.3301 9.01758C39.2051 11.0137 39.6426 13.4062 39.6426 16.1953C39.6426 18.6562 39.0137 20.8848 37.7559 22.8809C36.498 24.8496 34.748 26.4629 32.5059 27.7207C30.291 28.9785 27.6934 29.7852 24.7129 30.1406L21.8828 32.0684ZM21.5137 60H3.63086L8.10156 53.5605H21.5137C24.0293 53.5605 26.1621 53.123 27.9121 52.248C29.6895 51.373 31.043 50.1426 31.9727 48.5566C32.9023 46.9434 33.3672 45.043 33.3672 42.8555C33.3672 40.6406 32.9707 38.7266 32.1777 37.1133C31.3848 35.5 30.1406 34.2559 28.4453 33.3809C26.75 32.5059 24.5625 32.0684 21.8828 32.0684H10.6035L10.6855 25.7109H26.1074L27.7891 28.0078C30.6602 28.2539 33.0938 29.0742 35.0898 30.4688C37.0859 31.8359 38.6035 33.5859 39.6426 35.7188C40.709 37.8516 41.2422 40.2031 41.2422 42.7734C41.2422 46.4922 40.4219 49.6367 38.7812 52.207C37.168 54.75 34.8848 56.6914 31.9316 58.0312C28.9785 59.3438 25.5059 60 21.5137 60Z" fill="#D4D4D4"/>
</svg>
