<svg width="26" height="26" viewBox="0 0 26 26" fill="none" xmlns="http://www.w3.org/2000/svg">
<path d="M13 0C5.82864 0 0 5.82864 0 13C0 20.1714 5.82864 26 13 26C20.1714 26 26 20.1714 26 13C26 5.82864 20.1714 0 13 0ZM13 24.6878C6.56103 24.6878 1.31221 19.439 1.31221 13C1.31221 6.56103 6.56103 1.31221 13 1.31221C19.439 1.31221 24.6878 6.56103 24.6878 13C24.6878 19.439 19.439 24.6878 13 24.6878Z" fill="#D4D4D4"/>
<path d="M13.9126 12.9385L17.7272 9.12398C17.9713 8.87985 17.9713 8.45262 17.7272 8.20849C17.483 7.96436 17.0558 7.96436 16.8117 8.20849L12.9971 12.023L9.18258 8.20849C8.93844 7.96436 8.51121 7.96436 8.26708 8.20849C8.02295 8.45262 8.02295 8.87985 8.26708 9.12398L12.0816 12.9385L8.26708 16.7226C8.02295 16.9667 8.02295 17.3939 8.26708 17.6381C8.38915 17.7601 8.57225 17.8212 8.72483 17.8212C8.87741 17.8212 9.06051 17.7601 9.18258 17.6381L12.9971 13.8235L16.8117 17.6381C16.9338 17.7601 17.1168 17.8212 17.2694 17.8212C17.422 17.8212 17.6051 17.7601 17.7272 17.6381C17.9713 17.3939 17.9713 16.9667 17.7272 16.7226L13.9126 12.9385Z" fill="#D4D4D4"/>
</svg>
