<svg width="22" height="22" viewBox="0 0 22 22" fill="none" xmlns="http://www.w3.org/2000/svg">
<path d="M20.1667 11.0007C20.1667 5.94065 16.06 1.83398 11 1.83398C5.94004 1.83398 1.83337 5.94065 1.83337 11.0007C1.83337 16.0607 5.94004 20.1673 11 20.1673" stroke="#1C1C1C" stroke-linecap="round" stroke-linejoin="round"/>
<path d="M7.33338 2.75H8.25005C6.46255 8.10333 6.46255 13.8967 8.25005 19.25H7.33338" stroke="#1C1C1C" stroke-linecap="round" stroke-linejoin="round"/>
<path d="M13.75 2.75C14.6392 5.42667 15.0883 8.21333 15.0883 11" stroke="#1C1C1C" stroke-linecap="round" stroke-linejoin="round"/>
<path d="M2.75 14.6667V13.75C5.42667 14.6392 8.21333 15.0884 11 15.0884" stroke="#1C1C1C" stroke-linecap="round" stroke-linejoin="round"/>
<path d="M2.75 8.25078C8.10333 6.46328 13.8967 6.46328 19.25 8.25078" stroke="#1C1C1C" stroke-linecap="round" stroke-linejoin="round"/>
<path d="M16.6833 19.6167C18.3034 19.6167 19.6167 18.3034 19.6167 16.6833C19.6167 15.0633 18.3034 13.75 16.6833 13.75C15.0633 13.75 13.75 15.0633 13.75 16.6833C13.75 18.3034 15.0633 19.6167 16.6833 19.6167Z" stroke="#1C1C1C" stroke-linecap="round" stroke-linejoin="round"/>
<path d="M20.1667 20.1667L19.25 19.25" stroke="#1C1C1C" stroke-linecap="round" stroke-linejoin="round"/>
</svg>
