<svg width="32" height="32" viewBox="0 0 32 32" fill="none" xmlns="http://www.w3.org/2000/svg">
<g clip-path="url(#clip0_92_4080)">
<path d="M0 16C0 7.16344 7.16344 0 16 0C24.8366 0 32 7.16344 32 16C32 24.8366 24.8366 32 16 32C7.16344 32 0 24.8366 0 16Z" fill="#FF8800"/>
<path fill-rule="evenodd" clip-rule="evenodd" d="M20.8763 11.4703C20.8763 14.1395 18.7003 16.3155 16.0309 16.3155C13.3327 16.3155 11.1567 14.1395 11.1567 11.4703C11.1567 8.80101 13.3327 6.625 16.0309 6.625C18.7003 6.625 20.8763 8.80101 20.8763 11.4703ZM18.0329 11.4703C18.0329 10.3677 17.1335 9.46832 16.0309 9.46832C14.8995 9.46832 14 10.3677 14.0291 11.4703C14.0291 12.5728 14.9285 13.4721 16.0309 13.4721C17.1335 13.4721 18.0329 12.5728 18.0329 11.4703Z" fill="white"/>
<path d="M20.7892 19.1304C19.9188 19.6816 18.9613 20.0588 17.9749 20.2909L20.7312 22.9601C21.2824 23.5114 21.2824 24.4108 20.7312 24.9621C20.18 25.5133 19.2805 25.5133 18.7293 24.9621L16.06 22.2928L13.3908 24.9621C13.1007 25.2232 12.7525 25.3682 12.3753 25.3682C11.9982 25.3682 11.65 25.2522 11.3599 24.9621C10.8086 24.4108 10.8086 23.5114 11.3599 22.9601L14.0581 20.2618C13.0716 20.0297 12.1142 19.6526 11.2438 19.1013C10.5765 18.6952 10.3734 17.8248 10.7506 17.1574C11.1858 16.4901 12.0562 16.3161 12.7235 16.7222C14.6964 17.9698 17.2785 17.9698 19.2515 16.7222C19.9188 16.287 20.8183 16.4901 21.2244 17.1574C21.6596 17.8248 21.4565 18.7241 20.7892 19.1304Z" fill="white"/>
</g>
<defs>
<clipPath id="clip0_92_4080">
<rect width="32" height="32" fill="white"/>
</clipPath>
</defs>
</svg>
