<svg width="16" height="16" viewBox="0 0 16 16" fill="none" xmlns="http://www.w3.org/2000/svg">
<path d="M5.24996 15.2327C5.18962 15.2327 5.13032 15.2169 5.07796 15.187C5.0256 15.157 4.98198 15.1138 4.95143 15.0618C3.65755 12.8574 0.20968 8.16601 0.174996 8.11887C0.125733 8.05191 0.102212 7.96945 0.108733 7.88658C0.115254 7.80371 0.151381 7.72595 0.210511 7.66752L1.27036 6.62023C1.32794 6.56333 1.40365 6.52841 1.4843 6.52154C1.56496 6.51467 1.64548 6.53629 1.71185 6.58264L5.17778 9.00281C7.48206 6.04264 9.62344 3.99974 11.0309 2.79603C12.6085 1.44661 13.6115 0.840256 13.6534 0.814987C13.7072 0.78269 13.7688 0.765628 13.8316 0.765625H15.5461C15.6163 0.765614 15.6848 0.786933 15.7426 0.826757C15.8004 0.86658 15.8447 0.923027 15.8697 0.988612C15.8947 1.0542 15.8991 1.12582 15.8824 1.19399C15.8658 1.26216 15.8288 1.32366 15.7764 1.37032C13.2345 3.63417 10.5918 7.23116 8.82254 9.84991C6.89921 12.6965 5.56402 15.0346 5.55077 15.0579C5.52071 15.1106 5.4773 15.1546 5.42491 15.1852C5.37251 15.2159 5.31296 15.2323 5.25224 15.2327L5.24996 15.2327Z" fill="#463998"/>
</svg>
