<svg width="44" height="60" viewBox="0 0 44 60" fill="none" xmlns="http://www.w3.org/2000/svg">
<path d="M37.3613 0.28125V6.76172H8.56836V60H0.693359V0.28125H37.3613ZM6.72266 24.6035H23.0059C27.3809 24.6035 31.0723 25.3418 34.0801 26.8184C37.0879 28.2676 39.3711 30.3047 40.9297 32.9297C42.4883 35.5547 43.2676 38.6309 43.2676 42.1582C43.2676 44.7832 42.8301 47.1895 41.9551 49.377C41.0801 51.5371 39.7812 53.4238 38.0586 55.0371C36.3359 56.623 34.2168 57.8535 31.7012 58.7285C29.1855 59.5762 26.2871 60 23.0059 60H0.693359V0.28125H8.60938V53.5605H23.0059C25.9316 53.5605 28.2969 53.0273 30.1016 51.9609C31.9336 50.8672 33.2734 49.4453 34.1211 47.6953C34.9688 45.9453 35.3926 44.0723 35.3926 42.0762C35.3926 40.0801 34.9688 38.248 34.1211 36.5801C33.2734 34.9121 31.9336 33.5859 30.1016 32.6016C28.2969 31.5898 25.9316 31.084 23.0059 31.084H6.72266V24.6035Z" fill="#D4D4D4"/>
</svg>
