<svg width="47" height="62" viewBox="0 0 47 62" fill="none" xmlns="http://www.w3.org/2000/svg">
<path d="M38.2695 42.0098H46.1445C45.7344 45.7832 44.6543 49.1602 42.9043 52.1406C41.1543 55.1211 38.6797 57.4863 35.4805 59.2363C32.2812 60.959 28.2891 61.8203 23.5039 61.8203C20.0039 61.8203 16.8184 61.1641 13.9473 59.8516C11.1035 58.5391 8.65625 56.6797 6.60547 54.2734C4.55469 51.8398 2.96875 48.9277 1.84766 45.5371C0.753906 42.1191 0.207031 38.3184 0.207031 34.1348V28.1875C0.207031 24.0039 0.753906 20.2168 1.84766 16.8262C2.96875 13.4082 4.56836 10.4824 6.64648 8.04883C8.75195 5.61523 11.2812 3.74219 14.2344 2.42969C17.1875 1.11719 20.5098 0.460938 24.2012 0.460938C28.7129 0.460938 32.5273 1.30859 35.6445 3.00391C38.7617 4.69922 41.1816 7.05078 42.9043 10.0586C44.6543 13.0391 45.7344 16.498 46.1445 20.4355H38.2695C37.8867 17.6465 37.1758 15.2539 36.1367 13.2578C35.0977 11.2344 33.6211 9.67578 31.707 8.58203C29.793 7.48828 27.291 6.94141 24.2012 6.94141C21.5488 6.94141 19.2109 7.44727 17.1875 8.45898C15.1914 9.4707 13.5098 10.9063 12.1426 12.7656C10.8027 14.625 9.79102 16.8535 9.10742 19.4512C8.42383 22.0488 8.08203 24.9336 8.08203 28.1055V34.1348C8.08203 37.0605 8.38281 39.8086 8.98438 42.3789C9.61328 44.9492 10.5566 47.2051 11.8145 49.1465C13.0723 51.0879 14.6719 52.6191 16.6133 53.7402C18.5547 54.834 20.8516 55.3809 23.5039 55.3809C26.8672 55.3809 29.5469 54.8477 31.543 53.7812C33.5391 52.7148 35.043 51.1836 36.0547 49.1875C37.0938 47.1914 37.832 44.7988 38.2695 42.0098Z" fill="#D4D4D4"/>
</svg>
